# xmcd
#
# Track frame offsets:
#	150
#	12639
#	21948
#	32539
#	43870
#	53885
#	67171
#	80415
#	91339
#	103962
#	114950
#	126126
#	136628
#	150085
#	161503
#	172373
#	183503
#	195883
#	208301
#	220234
#	240189
#	249474
#	261579
#	275194
#	289217
#	298883
#	313207
#	322968
#	334707
#	344782
#
# Disc length: 4772 seconds
#
# Revision: 1
# Processed by: cddbd v1.5.1PL0 Copyright (c) Steve Scherf et al.
# Submitted via: audiograbber 1.83.01
#
DISCID=d012a21e
DTITLE=Various Artist - Classic Country Stars
DYEAR=1900
DGENRE=
TTITLE0=Johnny Cash - I Walk The Line
TTITLE1=Elvis Presley - Do'nt Be Cruel
TTITLE2=Jim Reeves - He'll Have To Go
TTITLE3=Don Gibson - Oh, Lonesome Me
TTITLE4=Conway Twitty - It's Only Make Believe
TTITLE5=Hank Locklin - Help Me I'm Falling
TTITLE6=Jerry Lee Lewis - You Win Again
TTITLE7=Ferlin Husky - Gone
TTITLE8=George Jones - White Lightning
TTITLE9=Faron Young - Hello Walls
TTITLE10=Marty Robbins - Singing The Blues
TTITLE11=Leroy van Dyke - Walk On By
TTITLE12=Claude King - Wolverton Mountain
TTITLE13=Johnny Horton - Battle Of New Orleans
TTITLE14=The Everly Brothers - Cathy's Clown
TTITLE15=Roger Miller - King Of The Road
TTITLE16=Patsy Cline - Crazy
TTITLE17=Merle Haggard - Okie From Muskogie
TTITLE18=Johnny Cash - Ring Of Fire
TTITLE19=Marty Robbins - El Paso
TTITLE20=Charley Pride - Kiss An Angel Good Morning
TTITLE21=Eddy Arnold - Make The World Go Away
TTITLE22=Loretta Lynn - Coal Miner's Daughter
TTITLE23=The Everly Brothers - Ebony Eyes
TTITLE24=George Jones - The Race Is On
TTITLE25=David Houston - Almost Persuaded
TTITLE26=Dave Dudley - Six Days On The Road
TTITLE27=Jack Greene - There Goes My Everything
TTITLE28=Merle Haggard - Mama Tried
TTITLE29=Charlie Rich - Behind Closed Doors
EXTD=Výbìr
EXTT0=
EXTT1=
EXTT2=
EXTT3=
EXTT4=
EXTT5=
EXTT6=
EXTT7=
EXTT8=
EXTT9=
EXTT10=
EXTT11=
EXTT12=
EXTT13=
EXTT14=
EXTT15=
EXTT16=
EXTT17=
EXTT18=
EXTT19=
EXTT20=
EXTT21=
EXTT22=
EXTT23=
EXTT24=
EXTT25=
EXTT26=
EXTT27=
EXTT28=
EXTT29=
PLAYORDER=
